# xmcd
#
# Track frame offsets: 
#        150
#        21238
#        39699
#        58565
#        81750
#        102098
#        119508
#        141889
#        156612
#        184578
#        205770
#        236820
#        255619
#        267763
#        293269
#        308541
#        330216
#
# Disc length: 4624 seconds
#
# Revision: 1
# Processed by: cddbd v1.5.2PL0 Copyright (c) Steve Scherf et al.
# Submitted via: ExactAudioCopy v1.0b2
#
DISCID=e5120e11
DTITLE=Sonic Seduction - Cold Hands Seduction - Vol. 179 CD1
DYEAR=2016
DGENRE=Gothic Rock
TTITLE0=And Then She Came - Would You Die Tonight?
TTITLE1=Lord Of The Lost feat. Erk Aicrag (Hocico/Rabia Sorda) and Der S
TTITLE1=chulz (Unzucht) - La Bomba - Versión Espanol [Exklusiv]
TTITLE2=Illuminate - Ich träumte mir Flügel (Sonic Seducer Remix) [Exk
TTITLE2=lusiv]
TTITLE3=Novakill - PROMISEDland
TTITLE4=Battle Scream - Atomic Workout
TTITLE5=Toys No More - Ich atme und tanze [Exklusiv]
TTITLE6=Zoon Politicon - Dreamer
TTITLE7=Rave The Reqviem - Mono Heart
TTITLE8=Sirus - Surveillance State
TTITLE9=AngstSystem - KunstMord
TTITLE10=Norma Loy - Baphomet Sunrise
TTITLE11=M.O.I.PRO.JECT. - Child Of Everdream
TTITLE12=Oneirogen - Siege
TTITLE13=Monolith - Reconstructed
TTITLE14=Circuito Cerrado - 8 Bit Bitch (Centhron Remix)
TTITLE15=Arctic Sunrise - 200 Souls (POS.:2 202 Soulsmix)
TTITLE16=Elektroklänge - Approach To Tokyo (Straight Connection Mix)
EXTD=
EXTT0=
EXTT1=
EXTT2=
EXTT3=
EXTT4=
EXTT5=
EXTT6=
EXTT7=
EXTT8=
EXTT9=
EXTT10=
EXTT11=
EXTT12=
EXTT13=
EXTT14=
EXTT15=
EXTT16=
PLAYORDER=
